<svg version="1.1" id="Layer_1" xmlns="http://www.w3.org/2000/svg" x="0" y="0" viewBox="0 0 100 100" style="enable-background:new 0 0 100 100" xml:space="preserve"><style>.st0{fill:#38b6ff}.st1{fill:#333;stroke:#e6e6e6;stroke-width:.5;stroke-miterlimit:10}</style><path class="st0" d="m38.12 26.93-.32-5.87L1.29 38.49c-2.38 1.13-2.41 4.27-.07 5.46l51.79 26.12c2.5 1.26 5.54-.42 5.54-3.05V39.7l-7.27-4.18-.91 25.9-40.1-19.96L38.12 28.1v-1.17z"/><path class="st1" d="m61.36 60.86.32 5.87L98.2 49.29c2.38-1.13 2.41-4.27.07-5.46l-51.8-26.12c-2.5-1.26-5.54.42-5.54 3.05v27.33l7.27 4.18-.38-27.55 41.39 21.61-27.85 13.35v1.18z"/><ellipse class="st1" cx="79.12" cy="21.68" rx="11.5" ry="9.83"/><ellipse class="st0" cx="20.32" cy="67.48" rx="11.5" ry="9.83"/></svg>