<svg version="1.1" id="Layer_1" xmlns="http://www.w3.org/2000/svg" x="0" y="0" viewBox="0 0 1000 200" style="enable-background:new 0 0 1000 200" xml:space="preserve"><style>.st0{stroke:#000;stroke-miterlimit:10}</style><path class="st0" d="M170.3 16.9h15.9v146.3h-15.9z"/><path class="st0" d="M176.9 48.1h135.2v13.8H176.9z"/><path class="st0" d="M302.2 48.1h15.9v116.1h-15.9z"/><path class="st0" d="M170.3 151h147.8v13.8H170.3zM142.5 73.6H281v13.8H142.5zM142.5 122.6H279v13.7H142.5z"/><path class="st0" d="M267.4 73.7h15.8v62.7h-15.8zM125.1 16.9H141v119.4h-15.9zM145.1 166.9h-10.6c-5.2 0-9.4-3.7-9.4-8.2v-9.2c0-4.5 4.2-8.2 9.4-8.2h10.6c5.2 0 9.4 3.7 9.4 8.2v9.2c.1 4.5-4.2 8.2-9.4 8.2z"/><text transform="matrix(2.1591 0 0 1 349.899 98.81)" style="font-size:68.2836px;font-family:'Antema-Bold'">Boburov</text><text transform="matrix(2.1591 0 0 1 349.899 153.44)" style="font-size:45.5224px;font-family:'AgencyFB-Bold'">Shukurillo</text></svg>